<?xml version="1.0" encoding="UTF-8" standalone="no"?>
<svg width="604px" height="762px" viewBox="0 0 604 762" version="1.1" xmlns="http://www.w3.org/2000/svg" xmlns:xlink="http://www.w3.org/1999/xlink" xmlns:sketch="http://www.bohemiancoding.com/sketch/ns">
    <!-- Generator: Sketch 3.3.3 (12081) - http://www.bohemiancoding.com/sketch -->
    <title>Group</title>
    <desc>Created with Sketch.</desc>
    <defs></defs>
    <g id="Page-1" stroke="none" stroke-width="1" fill="none" fill-rule="evenodd" sketch:type="MSPage">
        <g id="Artboard-7-Copy-2" sketch:type="MSArtboardGroup" transform="translate(-210.000000, -274.000000)">
            <g id="Group" sketch:type="MSLayerGroup" transform="translate(210.000000, 274.000000)">
                <g id="asdf-asdf-asd-hiis-s" transform="translate(177.000000, 159.000000)" fill="#444444" font-size="24" font-family="BLOKK" sketch:type="MSTextLayer" font-weight="normal">
                    <text transform="translate(137.564552, 102.702625) rotate(-14.000000) translate(-137.564552, -102.702625) ">
                        <tspan x="14.5645516" y="42.7026254">asdf asdf asd hiis s </tspan>
                        <tspan x="14.5645516" y="57.7026254">asdlkfj </tspan>
                        <tspan x="14.5645516" y="72.7026254">asdfkj </tspan>
                        <tspan x="14.5645516" y="87.7026254"></tspan>
                        <tspan x="14.5645516" y="102.702625"></tspan>
                        <tspan x="14.5645516" y="117.702625">asdfklj asf</tspan>
                        <tspan x="14.5645516" y="132.702625"></tspan>
                        <tspan x="14.5645516" y="147.702625">af</tspan>
                        <tspan x="14.5645516" y="162.702625">af</tspan>
                        <tspan x="14.5645516" y="177.702625">af l;kasjdfl;ksjdfkl;</tspan>
                    </text>
                </g>
                <g id="Rectangle-42-Copy-2-+-asdf-asdf-asd-hiis-s-copy-+-IM-A-TITLS-Copy-Copy" transform="translate(0.000000, 140.000000)">
                    <rect id="Rectangle-42-Copy-2" stroke="#979797" fill="#FFFFFF" sketch:type="MSShapeGroup" transform="translate(237.000000, 311.000000) rotate(-14.000000) translate(-237.000000, -311.000000) " x="62" y="35" width="350" height="552"></rect>
                    <g id="asdf-asdf-asd-hiis-s-copy" transform="translate(47.000000, 159.000000)" font-weight="normal" font-family="BLOKK" fill="#444444" font-size="24" sketch:type="MSTextLayer">
                        <text id="asdf-asdf-asd-hiis-s" transform="translate(137.564552, 102.702625) rotate(-14.000000) translate(-137.564552, -102.702625) ">
                            <tspan x="14.5645516" y="42.7026254">asdf asdf asd hiis s </tspan>
                            <tspan x="14.5645516" y="57.7026254">asdlkfj </tspan>
                            <tspan x="14.5645516" y="72.7026254">asdfkj </tspan>
                            <tspan x="14.5645516" y="87.7026254"></tspan>
                            <tspan x="14.5645516" y="102.702625"></tspan>
                            <tspan x="14.5645516" y="117.702625">asdfklj asf</tspan>
                            <tspan x="14.5645516" y="132.702625"></tspan>
                            <tspan x="14.5645516" y="147.702625">af</tspan>
                            <tspan x="14.5645516" y="162.702625">af</tspan>
                            <tspan x="14.5645516" y="177.702625">af l;kasjdfl;ksjdfkl;</tspan>
                        </text>
                    </g>
                    <text id="IM-A-TITLS" sketch:type="MSTextLayer" transform="translate(119.500000, 96.500000) rotate(-14.000000) translate(-119.500000, -96.500000) " font-family="BLOKK Neue" font-size="24" font-weight="normal" fill="#444444">
                        <tspan x="29" y="104">IM A TITLS</tspan>
                    </text>
                </g>
                <path d="M138.315018,682.783388 C138.315018,682.783388 147.720186,642.550166 150.071479,640.460128 C152.422771,638.370091 159.215393,685.918445 148.765205,704.728783 C138.315018,723.53912 176.719457,637.325072 176.719457,637.325072 C176.719457,637.325072 176.980712,663.973051 171.233109,684.350917 C165.485505,704.728783 186.124626,676.774531 186.124626,676.774531 C186.124626,676.774531 168.359307,699.764943 184.295843,689.314756 C200.232379,678.864568 210.682567,672.594455 210.682567,672.594455 C210.682567,672.594455 192.394739,694.801104 207.025001,690.621029 C221.655264,686.440954 225.835339,625.307356 225.835339,627.397394 C225.835339,629.487431 213.295114,692.449812 213.295114,692.449812 C213.295114,692.449812 228.970396,665.279325 232.627961,678.864568 C236.285527,692.449811 227.925377,695.06236 232.105452,695.062359 C236.285527,695.062358 256.140884,680.432096 256.140884,680.432096 C256.140884,680.432096 233.67298,688.269738 248.303243,694.278595 C262.933506,700.287451 263.19476,680.693351 263.19476,680.693351 C263.19476,680.693351 285.140154,671.549438 278.608787,671.549437 C272.07742,671.549435 256.924648,697.674907 273.383693,697.674906 C289.842739,697.674905 307.869313,604.145726 307.869313,604.145726 C307.869313,604.145726 265.546052,664.49556 307.346803,708.125094" id="Path-30-Copy-2" stroke="#979797" sketch:type="MSShapeGroup" transform="translate(223.092165, 656.135410) rotate(-12.000000) translate(-223.092165, -656.135410) "></path>
                <g id="Rectangle-42-Copy-2-+-asdf-asdf-asd-hiis-s-copy-+-IM-A-TITLS-Copy" transform="translate(60.000000, 60.000000)">
                    <rect id="Rectangle-42-Copy-2" stroke="#979797" fill="#FFFFFF" sketch:type="MSShapeGroup" transform="translate(237.000000, 311.000000) rotate(-14.000000) translate(-237.000000, -311.000000) " x="62" y="35" width="350" height="552"></rect>
                    <g id="asdf-asdf-asd-hiis-s-copy" transform="translate(40.000000, 171.000000)" font-weight="normal" font-family="BLOKK" fill="#444444" font-size="24" sketch:type="MSTextLayer">
                        <text id="asdf-a-fksdjf-" transform="translate(96.564552, 113.202625) rotate(-14.000000) translate(-96.564552, -113.202625) ">
                            <tspan x="21.5645516" y="30.7026254">asdf a fksdjf </tspan>
                            <tspan x="21.5645516" y="45.7026254">asdf a</tspan>
                            <tspan x="21.5645516" y="60.7026254"></tspan>
                            <tspan x="21.5645516" y="75.7026254">asdf</tspan>
                            <tspan x="21.5645516" y="90.7026254">a</tspan>
                            <tspan x="21.5645516" y="105.702625"></tspan>
                            <tspan x="21.5645516" y="120.702625"></tspan>
                            <tspan x="21.5645516" y="135.702625"></tspan>
                            <tspan x="21.5645516" y="150.702625">asdfas</tspan>
                            <tspan x="21.5645516" y="165.702625">dfasd</tspan>
                            <tspan x="21.5645516" y="180.702625">fa</tspan>
                            <tspan x="21.5645516" y="195.702625"></tspan>
                            <tspan x="21.5645516" y="210.702625">asdfa</tspan>
                        </text>
                    </g>
                    <text id="IM-A-TITLS" sketch:type="MSTextLayer" transform="translate(119.500000, 96.500000) rotate(-14.000000) translate(-119.500000, -96.500000) " font-family="BLOKK Neue" font-size="24" font-weight="normal" fill="#444444">
                        <tspan x="29" y="104">IM A TITLS</tspan>
                    </text>
                </g>
                <path d="M198.315018,602.783388 C198.315018,602.783388 207.720186,562.550166 210.071479,560.460128 C212.422771,558.370091 219.215393,605.918445 208.765205,624.728783 C198.315018,643.53912 236.719457,557.325072 236.719457,557.325072 C236.719457,557.325072 236.980712,583.973051 231.233109,604.350917 C225.485505,624.728783 246.124626,596.774531 246.124626,596.774531 C246.124626,596.774531 228.359307,619.764943 244.295843,609.314756 C260.232379,598.864568 270.682567,592.594455 270.682567,592.594455 C270.682567,592.594455 252.394739,614.801104 267.025001,610.621029 C281.655264,606.440954 285.835339,545.307356 285.835339,547.397394 C285.835339,549.487431 273.295114,612.449812 273.295114,612.449812 C273.295114,612.449812 288.970396,585.279325 292.627961,598.864568 C296.285527,612.449811 287.925377,615.06236 292.105452,615.062359 C296.285527,615.062358 316.140884,600.432096 316.140884,600.432096 C316.140884,600.432096 293.67298,608.269738 308.303243,614.278595 C322.933506,620.287451 323.19476,600.693351 323.19476,600.693351 C323.19476,600.693351 345.140154,591.549438 338.608787,591.549437 C332.07742,591.549435 316.924648,617.674907 333.383693,617.674906 C349.842739,617.674905 367.869313,524.145726 367.869313,524.145726 C367.869313,524.145726 325.546052,584.49556 367.346803,628.125094" id="Path-30-Copy" stroke="#979797" sketch:type="MSShapeGroup" transform="translate(283.092165, 576.135410) rotate(-12.000000) translate(-283.092165, -576.135410) "></path>
                <g id="Rectangle-42-Copy-2-+-asdf-asdf-asd-hiis-s-copy-+-IM-A-TITLS" transform="translate(130.000000, 0.000000)">
                    <rect id="Rectangle-42-Copy-2" stroke="#979797" fill="#FFFFFF" sketch:type="MSShapeGroup" transform="translate(237.000000, 311.000000) rotate(-14.000000) translate(-237.000000, -311.000000) " x="62" y="35" width="350" height="552"></rect>
                    <g id="asdf-asdf-asd-hiis-s-copy" transform="translate(47.000000, 159.000000)" font-weight="normal" font-family="BLOKK" fill="#444444" font-size="24" sketch:type="MSTextLayer">
                        <text id="asdf-asdf-asd-hiis-s" transform="translate(137.564552, 102.702625) rotate(-14.000000) translate(-137.564552, -102.702625) ">
                            <tspan x="14.5645516" y="42.7026254">asdf asdf asd hiis s </tspan>
                            <tspan x="14.5645516" y="57.7026254">asdlkfj </tspan>
                            <tspan x="14.5645516" y="72.7026254">asdfkj </tspan>
                            <tspan x="14.5645516" y="87.7026254"></tspan>
                            <tspan x="14.5645516" y="102.702625"></tspan>
                            <tspan x="14.5645516" y="117.702625">asdfklj asf</tspan>
                            <tspan x="14.5645516" y="132.702625"></tspan>
                            <tspan x="14.5645516" y="147.702625">af</tspan>
                            <tspan x="14.5645516" y="162.702625">af</tspan>
                            <tspan x="14.5645516" y="177.702625">af l;kasjdfl;ksjdfkl;</tspan>
                        </text>
                    </g>
                    <text id="IM-A-TITLS" sketch:type="MSTextLayer" transform="translate(119.500000, 96.500000) rotate(-14.000000) translate(-119.500000, -96.500000) " font-family="BLOKK Neue" font-size="24" font-weight="normal" fill="#444444">
                        <tspan x="29" y="104">IM A TITLS</tspan>
                    </text>
                </g>
                <path d="M258.315018,472.783388 C258.315018,472.783388 267.720186,432.550166 270.071479,430.460128 C272.422771,428.370091 279.215393,475.918445 268.765205,494.728783 C258.315018,513.53912 296.719457,427.325072 296.719457,427.325072 C296.719457,427.325072 296.980712,453.973051 291.233109,474.350917 C285.485505,494.728783 306.124626,466.774531 306.124626,466.774531 C306.124626,466.774531 288.359307,489.764943 304.295843,479.314756 C320.232379,468.864568 330.682567,462.594455 330.682567,462.594455 C330.682567,462.594455 312.394739,484.801104 327.025001,480.621029 C341.655264,476.440954 345.835339,415.307356 345.835339,417.397394 C345.835339,419.487431 333.295114,482.449812 333.295114,482.449812 C333.295114,482.449812 348.970396,455.279325 352.627961,468.864568 C356.285527,482.449811 347.925377,485.06236 352.105452,485.062359 C356.285527,485.062358 376.140884,470.432096 376.140884,470.432096 C376.140884,470.432096 353.67298,478.269738 368.303243,484.278595 C382.933506,490.287451 383.19476,470.693351 383.19476,470.693351 C383.19476,470.693351 405.140154,461.549438 398.608787,461.549437 C392.07742,461.549435 376.924648,487.674907 393.383693,487.674906 C409.842739,487.674905 427.869313,394.145726 427.869313,394.145726 C427.869313,394.145726 385.546052,454.49556 427.346803,498.125094" id="Path-30" stroke="#979797" sketch:type="MSShapeGroup" transform="translate(343.092165, 446.135410) rotate(-12.000000) translate(-343.092165, -446.135410) "></path>
            </g>
        </g>
    </g>
</svg>